<svg width="74" height="32" viewBox="0 0 74 32" fill="none" xmlns="http://www.w3.org/2000/svg">
<rect width="74" height="32" rx="5.3" fill="#66A505"/>
<path d="M7.41699 13.1182V11.4502H14.7451V13.1182H12.0107V21H10.1514V13.1182H7.41699ZM15.7227 19.0791V15.7363C15.7227 15.2077 15.9072 14.7588 16.2764 14.3896C16.6501 14.016 17.1035 13.8291 17.6367 13.8291H20.1045C20.5465 13.8291 20.9225 13.9863 21.2324 14.3008C21.5423 14.6107 21.6973 14.9867 21.6973 15.4287V18.0195L21.6699 18.0469H17.5547V19.0791C17.5547 19.2113 17.6003 19.3252 17.6914 19.4209C17.7871 19.512 17.901 19.5576 18.0332 19.5576H21.6152V21H17.6367C17.1035 21 16.6501 20.8132 16.2764 20.4395C15.9072 20.0658 15.7227 19.6123 15.7227 19.0791ZM17.5547 16.7754H20.0088L20.0225 16.7549V15.5791C20.0225 15.488 19.9928 15.4128 19.9336 15.3535C19.8743 15.2897 19.8014 15.2578 19.7148 15.2578H17.876C17.7848 15.2578 17.7074 15.2897 17.6436 15.3535C17.5843 15.4128 17.5547 15.488 17.5547 15.5791V16.7754ZM22.8867 21V13.8291H24.7188V14.3076L25.1152 14.041C25.334 13.8997 25.5664 13.8291 25.8125 13.8291H27.1865C27.7152 13.8291 28.1641 14.016 28.5332 14.3896C28.9023 14.7633 29.0869 15.2168 29.0869 15.75V21H27.2549V15.75C27.2549 15.6133 27.2093 15.4971 27.1182 15.4014C27.027 15.3057 26.9154 15.2578 26.7832 15.2578H25.1973C25.0651 15.2578 24.9512 15.3079 24.8555 15.4082C24.7643 15.5039 24.7188 15.6178 24.7188 15.75V21H22.8867ZM30.2148 16.6455V15.4287C30.2148 14.9912 30.3675 14.6175 30.6729 14.3076C30.9827 13.9977 31.3564 13.8428 31.7939 13.8428H35.6973V15.2715H32.0332C31.9466 15.2715 31.8646 15.3011 31.7871 15.3604C31.7096 15.4196 31.6709 15.488 31.6709 15.5654V16.2422C31.6709 16.3197 31.7096 16.388 31.7871 16.4473C31.8646 16.5065 31.9466 16.5361 32.0332 16.5361H34.4258C34.8678 16.5361 35.2438 16.6911 35.5537 17.001C35.8682 17.3109 36.0254 17.6868 36.0254 18.1289V19.4209C36.0254 19.8538 35.8682 20.2253 35.5537 20.5352C35.2438 20.8451 34.8678 21 34.4258 21H30.4199V19.5713H34.1865C34.2777 19.5713 34.3643 19.5417 34.4463 19.4824C34.5283 19.4232 34.5693 19.3548 34.5693 19.2773V18.5391C34.5693 18.4616 34.5283 18.3932 34.4463 18.334C34.3643 18.2747 34.2777 18.2451 34.1865 18.2451H31.7939C31.3564 18.2451 30.9827 18.0902 30.6729 17.7803C30.3675 17.4658 30.2148 17.0876 30.2148 16.6455ZM37.0781 19.0791V15.75C37.0781 15.2168 37.2627 14.7633 37.6318 14.3896C38.001 14.016 38.4499 13.8291 38.9785 13.8291H41.3779C41.9066 13.8291 42.3555 14.016 42.7246 14.3896C43.0938 14.7633 43.2783 15.2168 43.2783 15.75V19.0791C43.2783 19.6123 43.0938 20.0658 42.7246 20.4395C42.3555 20.8132 41.9066 21 41.3779 21H38.9785C38.4499 21 38.001 20.8132 37.6318 20.4395C37.2627 20.0658 37.0781 19.6123 37.0781 19.0791ZM38.8965 19.0791C38.8965 19.2113 38.9443 19.3252 39.04 19.4209C39.1357 19.512 39.2474 19.5576 39.375 19.5576H40.9678C41.0999 19.5576 41.2116 19.512 41.3027 19.4209C41.3984 19.3252 41.4463 19.2113 41.4463 19.0791V15.75C41.4463 15.6178 41.3984 15.5039 41.3027 15.4082C41.2116 15.3079 41.0999 15.2578 40.9678 15.2578H39.375C39.2474 15.2578 39.1357 15.3079 39.04 15.4082C38.9443 15.5039 38.8965 15.6178 38.8965 15.75V19.0791ZM44.4746 21V13.8291H46.3066V14.3076L46.7031 14.041C46.9219 13.8997 47.1543 13.8291 47.4004 13.8291H48.4531V15.2578H46.7852C46.653 15.2578 46.5391 15.3079 46.4434 15.4082C46.3522 15.5039 46.3066 15.6178 46.3066 15.75V21H44.4746ZM49.5674 21V11.4502H55.2959C55.738 11.4502 56.1139 11.6074 56.4238 11.9219C56.7337 12.2318 56.8887 12.6077 56.8887 13.0498V15.5107C56.8887 15.9528 56.7337 16.3311 56.4238 16.6455C56.1139 16.9554 55.738 17.1104 55.2959 17.1104H55.1797L57.5176 21H55.5215L53.1631 17.1104H51.4131V21H49.5674ZM51.4131 15.415H54.5234C54.6556 15.415 54.7673 15.3695 54.8584 15.2783C54.9541 15.1826 55.002 15.0687 55.002 14.9365V13.6377C55.002 13.5055 54.9541 13.3916 54.8584 13.2959C54.7673 13.1956 54.6556 13.1455 54.5234 13.1455H51.4131V15.415ZM58.2217 13.1182V11.4502H65.5498V13.1182H62.8154V21H60.9561V13.1182H58.2217Z" fill="white"/>
</svg>
