<svg width="74" height="32" viewBox="0 0 74 32" fill="none" xmlns="http://www.w3.org/2000/svg">
<rect width="74" height="32" rx="5.3" fill="white"/>
<path fill-rule="evenodd" clip-rule="evenodd" d="M36.2153 1.07786L35.5957 1.15563L34.7822 1.32243L33.9687 1.48923L33.0888 1.78632L32.209 2.08341L31.4656 2.43936L30.7222 2.7953L30.0232 3.23343L29.3243 3.67157L28.6603 4.19564L27.9962 4.71972L27.0876 5.66859L26.179 6.61747L25.5789 7.50907L24.9788 8.40068L24.525 9.31546L24.0713 10.2302L23.746 11.2162L23.4207 12.2023L23.2509 13.0496L23.0811 13.8969L23.0088 14.9438L22.9366 15.9905L23.0023 16.9306L23.068 17.8707L23.1615 18.4542L23.255 19.0377L23.4227 19.7045L23.5904 20.3714L23.8832 21.1633L24.1759 21.9552L24.5047 22.6169L24.8334 23.2786L25.2451 23.9483L25.6568 24.6181L26.2186 25.3292L26.7806 26.0402L27.5123 26.7501L28.2441 27.46L28.7397 27.8424L29.2353 28.2247L29.8327 28.6104L30.43 28.996L31.27 29.4214L32.11 29.8467L33.0682 30.1687L34.0263 30.4905L34.8762 30.664L35.7261 30.8374L36.7847 30.9187L37.8433 31L38.8672 30.9166L39.8911 30.833L40.7584 30.6573L41.6258 30.4817L42.4859 30.1978L43.3461 29.9141L44.2619 29.4654L45.1777 29.0167L45.9212 28.5229L46.6646 28.0291L47.4171 27.3919L48.1696 26.7547L48.747 26.1055L49.3244 25.4563L49.8724 24.7061L50.4203 23.9558L50.9153 22.9901L51.4101 22.0243L51.6949 21.2805L51.9795 20.5366L52.185 19.7038L52.3906 18.871L52.5007 18.2458L52.6109 17.6206L52.6073 15.9534L52.6038 14.2862L52.4542 13.4526L52.3047 12.6191L52.1022 11.9105L51.8996 11.202L51.5599 10.3398L51.2202 9.47759L50.7973 8.73211L50.3745 7.98672L49.8428 7.21857L49.3112 6.4505L48.2748 5.40851L47.2383 4.36653L46.5687 3.88588L45.899 3.40524L45.1748 2.98469L44.4506 2.56423L43.5988 2.19703L42.747 1.82992L42.0212 1.61669L41.2954 1.40346L40.3867 1.23482L39.4781 1.06619L38.1564 1.03309L36.8348 1L36.2153 1.07786ZM15.8856 3.03279L15.6699 3.15107L15.5681 3.39907L15.4663 3.64698L15.5217 3.90155L15.5772 4.15613L15.7773 4.31501L15.9775 4.4739V5.60807V6.74225H20.3512H24.725L24.9357 6.4635L25.1464 6.18467V6.13007V6.07538H20.8511H16.5557V5.27464V4.4739L16.7558 4.31501L16.956 4.15613L17.0114 3.90155L17.0668 3.64698L16.9648 3.39848L16.8628 3.14999L16.6308 3.02887L16.3987 2.90775L16.2501 2.91108L16.1014 2.91442L15.8856 3.03279ZM4.24145 5.90225L4 6.14591V6.44791V6.74984L4.2051 6.95682L4.41021 7.1638L4.43226 9.30796L4.45432 11.452L8.85294 11.4736L13.2516 11.4952V13.8702V16.2452H17.5469H21.8423V15.9117V15.5783H17.836H13.8298V13.536V11.4937H18.1641H22.4984L22.5713 11.2228L22.644 10.9519L22.61 10.8894L22.576 10.8268H18.2029H13.8298V8.99294V7.15905H12.3745H10.9192L10.6369 6.90897L10.3547 6.6589H10.0796H9.80453L9.58993 6.8292L9.37532 6.99958L9.3237 7.27758L9.27199 7.55559L9.40068 7.80675L9.52938 8.05791L9.79553 8.15152L10.0616 8.24513L10.3356 8.15385L10.6095 8.06266L10.6944 7.90261L10.7792 7.74256H12.0154H13.2516V9.2847V10.8268H9.1627H5.07384V9.00745V7.18814L5.27606 6.99642L5.47827 6.80469L5.52915 6.57112L5.57995 6.33763L5.44994 6.08397L5.31992 5.83023L5.16099 5.74445L5.00206 5.65859H4.74252H4.4829L4.24145 5.90225ZM67.3905 5.95035L67.184 6.15874H58.8448H50.5056V6.20601V6.25319L50.722 6.53944L50.9382 6.82561H59.0547H67.1713L67.2846 6.96341L67.3979 7.1012L67.6392 7.20365L67.8805 7.30601L68.1346 7.2324L68.3887 7.15888L68.5316 6.97141L68.6747 6.78393L68.6765 6.51944L68.6783 6.25486L68.4645 5.99844L68.2506 5.74195H67.9239H67.597L67.3905 5.95035ZM58.5073 10.5359L58.2899 10.6551L58.2414 10.7827L58.1929 10.9102H55.5883H52.9837V10.9881V11.0661L53.0643 11.2799L53.1448 11.4937H55.6186H58.0924L58.3505 11.7542L58.6088 12.0147L58.955 11.9679L59.3012 11.921L59.4476 11.7385L59.5941 11.556L59.6464 11.3456L59.6987 11.1352L59.555 10.8658L59.4113 10.5963L59.2086 10.5032L59.006 10.41L58.8653 10.4134L58.7247 10.4167L58.5073 10.5359ZM25.229 13.9528V14.3279H25.8073H26.3855V16.1201V17.9123H26.7985H27.2115V16.1201V14.3279H27.7897H28.368V13.9528V13.5777H26.7985H25.229V13.9528ZM43.7322 15.745V17.9123H44.1452H44.5582V17.0787V16.2452H44.8713H45.1843L45.5907 17.0787L45.9971 17.9123H46.507H47.0167L46.5552 17.0079L46.0937 16.1034L46.3948 15.8367L46.6958 15.57L46.7904 15.2806L46.885 14.9914L46.829 14.6568L46.773 14.3222L46.5644 14.0719L46.3558 13.8218L46.122 13.6997L45.888 13.5777H44.8101H43.7322V15.745ZM47.2841 13.9528V14.3279H47.8623H48.4406V16.1201V17.9123H48.8536H49.2666V16.1201V14.3279H49.8448H50.423V13.9528V13.5777H48.8536H47.2841V13.9528ZM44.575 14.8906L44.5995 15.4532L45.1076 15.4527L45.6158 15.4523L45.7891 15.294L45.9625 15.1357L45.9612 14.9193L45.9599 14.703L45.8993 14.6113L45.8385 14.5195L45.6581 14.4238L45.4777 14.3279H45.0142H44.5507L44.575 14.8906ZM28.8927 14.7524L28.6325 14.8285L28.3799 15.1189L28.1271 15.4094L28.0319 15.7648L27.9368 16.1201L27.9817 16.5629L28.0266 17.0057L28.1814 17.3132L28.3362 17.6206L28.7 17.8081L29.0638 17.9957L29.4387 17.9939L29.8135 17.992L30.1439 17.8404L30.4743 17.6887L30.5761 17.5646L30.6778 17.4404L30.438 17.2086L30.1982 16.9767L30.0081 17.1111L29.8181 17.2455H29.4707H29.1234L28.9522 17.0258L28.781 16.8062V16.6924V16.5786H29.7722H30.7635V16.1795V15.7803L30.5776 15.4084L30.3917 15.0365L30.0232 14.8489L29.6546 14.6613L29.4036 14.6688L29.1527 14.6763L28.8927 14.7524ZM32.4995 14.7938L32.2117 14.9198L32.1828 14.8322L32.1539 14.7447H31.7478H31.3417V16.3285V17.9123H31.7482H32.1546L32.1818 16.8211L32.209 15.7299L32.404 15.5707L32.5991 15.4116H32.7175H32.8361L33.0388 15.6162L33.2416 15.8208V16.8666V17.9123H33.6546H34.0676L34.0658 16.7662L34.0639 15.62L33.9111 15.2802L33.7582 14.9404L33.4667 14.8009L33.1753 14.6613L32.9813 14.6646L32.7872 14.6678L32.4995 14.7938ZM35.2211 14.8489L34.8529 15.0365L34.7505 15.2449L34.6482 15.4532L34.647 15.7723L34.6458 16.0913L34.8802 16.3278L35.1146 16.5643L35.479 16.612L35.8436 16.6597L36.0416 16.6817L36.2397 16.7036L36.326 16.8425L36.4122 16.9814L36.3037 17.1134L36.195 17.2455H35.8293H35.4637L35.2087 17.1124L34.9539 16.9795L34.6966 17.2422L34.4393 17.505L34.633 17.6659L34.8266 17.8268L35.1699 17.9205L35.5131 18.0142L35.9747 17.9724L36.4363 17.9306L36.6961 17.795L36.9559 17.6594L37.0812 17.4149L37.2065 17.1704V16.8758V16.5813L36.9793 16.3268L36.7522 16.0724L36.1327 15.9687L35.5131 15.865V15.6591V15.4532L35.9027 15.428L36.2923 15.4027L36.4482 15.4869L36.6042 15.5711L36.8353 15.3276L37.0665 15.0841L36.9688 14.9654L36.8711 14.8466L36.5066 14.754L36.1421 14.6613H35.8658H35.5895L35.2211 14.8489ZM38.4746 14.7524L38.2145 14.8285L37.9624 15.1182L37.7103 15.408L37.6556 15.7021L37.6009 15.9962L37.6334 16.5764L37.6659 17.1568L37.8337 17.3835L38.0015 17.6102L38.2295 17.7821L38.4577 17.954H38.9825H39.5073L39.7405 17.7785L39.9737 17.6032L40.1389 17.3201L40.3041 17.0371V16.3285V15.62L40.137 15.3282L39.9699 15.0365L39.6032 14.8489L39.2366 14.6613L38.9856 14.6688L38.7347 14.6763L38.4746 14.7524ZM42.0815 14.7938L41.7937 14.9198L41.7648 14.8322L41.7359 14.7447H41.3298H40.9237V16.3285V17.9123H41.3367H41.7497V17.0475V16.1826L41.8025 15.9165L41.8552 15.6504L42.0507 15.521L42.2463 15.3917L42.4981 15.497L42.7498 15.6022L43.0345 15.3239L43.3191 15.0455V14.9879V14.9304L43.0382 14.7959L42.7573 14.6613L42.5632 14.6646L42.3692 14.6678L42.0815 14.7938ZM62.0861 15.3691L61.8416 15.5767L57.805 15.5983L53.7685 15.62V15.9117V16.2035L57.823 16.2251L61.8775 16.2467L62.0708 16.4543L62.2641 16.662L62.6007 16.6593L62.9374 16.6566L63.0685 16.5551L63.1995 16.4536L63.2957 16.2715L63.3917 16.0894V15.8819V15.6744L63.1779 15.418L62.964 15.1615H62.6473H62.3305L62.0861 15.3691ZM28.9462 15.5783L28.781 15.745V15.87V15.9951H29.3592H29.9374V15.8886V15.7821L29.8088 15.5969L29.6803 15.4116H29.3958H29.1114L28.9462 15.5783ZM38.6393 15.6253L38.4276 15.839L38.4604 16.4263L38.4933 17.0136L38.6504 17.1295L38.8075 17.2455H38.9855H39.1634L39.3207 17.07L39.4781 16.8945V16.3124V15.7303L39.2831 15.571L39.088 15.4116H38.9696H38.8511L38.6393 15.6253ZM9.45181 19.3018L9.32791 19.3507L9.14205 19.5213L8.9562 19.692V20.0565V20.421L9.1627 20.6142L9.36921 20.8073V23.236V25.6647H12.5494H15.7297L15.7283 27.3527L15.7268 29.0407L15.5217 29.237L15.3166 29.4334V29.7467V30.06L15.5344 30.2798L15.7522 30.4995H16.0668H16.3812L16.6119 30.2994L16.8424 30.0992L16.8332 29.7412L16.8238 29.3832L16.6072 29.1951L16.3905 29.0071V27.3359V25.6647H20.7314H25.0723L24.8517 25.3729L24.6312 25.0812H20.5108H16.3905V22.9972V20.9133H19.4881H22.5857V20.8353V20.7574L22.5052 20.5436L22.4247 20.3297H19.0772H15.7297V22.7055V25.0812H12.8798H10.03V22.9284V20.7756L10.2365 20.5798L10.4431 20.384V20.0697V19.7556L10.2572 19.5424L10.0713 19.3293L9.82353 19.2912L9.57572 19.2531L9.45181 19.3018ZM68.7816 19.9954L68.5131 20.1606V20.2451V20.3297H60.8449H53.1767L53.0879 20.6215L52.9992 20.9133H60.7237H68.448L68.6055 21.1152L68.7629 21.3172L69.0152 21.3731L69.2675 21.4291L69.5137 21.3261L69.76 21.2232L69.88 20.989L70 20.7548V20.6296V20.5043L69.9013 20.2857L69.8027 20.0672L69.575 19.9484L69.3474 19.8296L69.1987 19.8299L69.0501 19.8302L68.7816 19.9954ZM56.6889 24.788L56.4944 24.9949L53.761 24.9964L51.0276 24.9978L50.8072 25.3104L50.5867 25.623L53.5172 25.6449L56.4476 25.6668L56.6531 25.8742L56.8586 26.0815H57.1568H57.4551L57.6219 25.9915L57.7887 25.9014L57.9067 25.6164L58.0248 25.3313L57.9067 25.0462L57.7887 24.7612L57.6219 24.6711L57.4551 24.581H57.1693H56.8834L56.6889 24.788Z" fill="#66A505"/>
</svg>
